<svg width="32" height="32" viewBox="0 0 32 32" fill="none" xmlns="http://www.w3.org/2000/svg">
  <!-- Modern background circle -->
  <circle cx="16" cy="16" r="16" fill="url(#modernBgGradient)" />

  <!-- Geometric mountains -->
  <path
    d="M4 24 L8 18 L12 20 L16 16 L20 19 L24 17 L24 28 L4 28 Z"
    fill="url(#mountainGradient)"
    opacity="0.8"
  />

  <!-- Modern tree -->
  <path
    d="M14 26 L14 20 Q14 19 15 19 Q16 19 16 20 L16 26 Q16 27 15 27 Q14 27 14 26 Z"
    fill="url(#trunkGradient)"
  />
  <circle cx="15" cy="18" r="4" fill="url(#modernTreeGradient)" />
  <circle cx="14" cy="17" r="2.5" fill="url(#treeHighlight)" opacity="0.6" />

  <!-- Modern sun with glow -->
  <circle cx="24" cy="8" r="3" fill="url(#modernSunGradient)" />
  <circle cx="24" cy="8" r="4" fill="url(#sunGlow)" opacity="0.3" />

  <!-- Modern water -->
  <ellipse cx="8" cy="26" rx="6" ry="2" fill="url(#modernWaterGradient)" />
  <ellipse cx="8" cy="25" rx="4" ry="1" fill="url(#waterReflection)" opacity="0.5" />

  <!-- House accent -->
  <rect x="22" y="22" width="4" height="4" rx="0.5" fill="url(#houseGradient)" />
  <path d="M21 22 L24 19 L27 22 Z" fill="url(#roofGradient)" />

  <!-- Modern gradients -->
  <defs>
    <radialGradient id="modernBgGradient" cx="50%" cy="30%" r="70%">
      <stop offset="0%" stop-color="#f0fdf4" />
      <stop offset="50%" stop-color="#dcfce7" />
      <stop offset="100%" stop-color="#bbf7d0" />
    </radialGradient>

    <linearGradient id="mountainGradient" x1="0%" y1="0%" x2="100%" y2="100%">
      <stop offset="0%" stop-color="#6ee7b7" />
      <stop offset="100%" stop-color="#10b981" />
    </linearGradient>

    <radialGradient id="modernTreeGradient" cx="30%" cy="30%" r="70%">
      <stop offset="0%" stop-color="#6ee7b7" />
      <stop offset="100%" stop-color="#059669" />
    </radialGradient>

    <radialGradient id="treeHighlight" cx="50%" cy="50%" r="50%">
      <stop offset="0%" stop-color="#a7f3d0" />
      <stop offset="100%" stop-color="#34d399" />
    </radialGradient>

    <linearGradient id="trunkGradient" x1="0%" y1="0%" x2="100%" y2="100%">
      <stop offset="0%" stop-color="#a3a3a3" />
      <stop offset="100%" stop-color="#525252" />
    </linearGradient>

    <radialGradient id="modernSunGradient" cx="30%" cy="30%" r="70%">
      <stop offset="0%" stop-color="#fef3c7" />
      <stop offset="100%" stop-color="#f59e0b" />
    </radialGradient>

    <radialGradient id="sunGlow" cx="50%" cy="50%" r="50%">
      <stop offset="0%" stop-color="#fde68a" />
      <stop offset="100%" stop-color="#fbbf24" />
    </radialGradient>

    <radialGradient id="modernWaterGradient" cx="30%" cy="30%" r="70%">
      <stop offset="0%" stop-color="#bfdbfe" />
      <stop offset="100%" stop-color="#2563eb" />
    </radialGradient>

    <radialGradient id="waterReflection" cx="50%" cy="50%" r="50%">
      <stop offset="0%" stop-color="#dbeafe" />
      <stop offset="100%" stop-color="#60a5fa" />
    </radialGradient>

    <linearGradient id="houseGradient" x1="0%" y1="0%" x2="100%" y2="100%">
      <stop offset="0%" stop-color="#fef3c7" />
      <stop offset="100%" stop-color="#f59e0b" />
    </linearGradient>

    <linearGradient id="roofGradient" x1="0%" y1="0%" x2="100%" y2="100%">
      <stop offset="0%" stop-color="#ef4444" />
      <stop offset="100%" stop-color="#dc2626" />
    </linearGradient>
  </defs>
</svg>
