<svg xmlns="http://www.w3.org/2000/svg" xmlns:xlink="http://www.w3.org/1999/xlink" width="300" zoomAndPan="magnify" viewBox="0 0 224.87999 60" height="80" preserveAspectRatio="xMidYMid meet" version="1.0"><defs><clipPath id="e460cad5f4"><path d="M 0 4 L 73 4 L 73 56.152344 L 0 56.152344 Z M 0 4 " clip-rule="nonzero"/></clipPath><clipPath id="ee07b83535"><path d="M 81 25 L 224.761719 25 L 224.761719 38 L 81 38 Z M 81 25 " clip-rule="nonzero"/></clipPath></defs><g clip-path="url(#e460cad5f4)"><path fill="#5a4b46" d="M -0.648438 4.578125 L 72.53125 4.578125 L 72.53125 57.417969 L -0.648438 57.417969 Z M 27.390625 51.230469 L 36.496094 51.230469 L 36.496094 43.644531 L 49.363281 43.644531 C 53.125 43.644531 53.804688 43.730469 54.429688 44.449219 C 55.148438 45.210938 55.328125 46.289062 55.328125 49.664062 L 55.328125 51.230469 L 64.296875 51.230469 L 64.296875 48.453125 C 64.472656 41.523438 63.667969 40.175781 59.050781 39.644531 C 60.84375 39.371094 61.6875 39.058594 62.542969 38.378906 C 64.160156 37.167969 64.609375 35.464844 64.609375 31.011719 C 64.609375 25.796875 63.929688 23.824219 61.644531 22.433594 C 59.71875 21.261719 59.71875 21.261719 49.402344 21.261719 L 27.390625 21.261719 Z M 36.496094 36.132812 L 36.496094 28.765625 L 49.320312 28.765625 C 53.441406 28.808594 53.574219 28.808594 54.199219 29.078125 C 55.148438 29.488281 55.503906 30.332031 55.503906 32.359375 C 55.503906 34.242188 55.234375 35.140625 54.511719 35.589844 C 53.886719 36.039062 53.886719 36.039062 49.320312 36.132812 Z M 36.496094 36.132812 " fill-opacity="1" fill-rule="evenodd"/></g><g clip-path="url(#ee07b83535)"><path fill="#5a4b46" d="M 81.554688 25.191406 L 90.824219 25.191406 C 95.160156 25.191406 95.160156 25.191406 95.976562 25.683594 C 96.933594 26.277344 97.214844 27.105469 97.214844 29.300781 C 97.214844 31.167969 97.027344 31.890625 96.351562 32.402344 C 95.984375 32.683594 95.632812 32.820312 94.878906 32.933594 C 96.820312 33.15625 97.164062 33.730469 97.082031 36.632812 L 97.082031 37.804688 L 93.304688 37.804688 L 93.304688 37.144531 C 93.304688 35.726562 93.234375 35.277344 92.929688 34.953125 C 92.667969 34.648438 92.386719 34.617188 90.804688 34.617188 L 85.378906 34.617188 L 85.378906 37.804688 L 81.554688 37.804688 Z M 212.414062 33.625 C 212.414062 34.386719 212.484375 34.628906 212.789062 34.816406 C 213.144531 35.046875 213.558594 35.085938 216.261719 35.085938 C 220.371094 35.085938 220.371094 35.085938 220.371094 33.96875 C 220.371094 33.21875 220.085938 33.027344 218.867188 33.007812 L 215.84375 32.894531 L 213.808594 32.800781 L 212.789062 32.757812 C 209.671875 32.664062 208.804688 31.871094 208.804688 29.089844 C 208.804688 26.6875 209.484375 25.609375 211.222656 25.234375 C 211.953125 25.089844 213.695312 25.003906 216.710938 25.003906 C 220.371094 25.003906 221.695312 25.183594 222.582031 25.777344 C 223.339844 26.289062 223.632812 27.082031 223.632812 28.578125 C 223.632812 28.660156 223.632812 28.921875 223.621094 29.164062 L 219.921875 29.164062 C 219.878906 28.464844 219.828125 28.296875 219.546875 28.128906 C 219.222656 27.941406 218.753906 27.898438 216.03125 27.898438 C 212.789062 27.898438 212.527344 27.972656 212.527344 28.902344 C 212.527344 29.371094 212.695312 29.621094 213.089844 29.71875 C 213.433594 29.8125 214.46875 29.863281 217.125 29.945312 C 221.277344 30.070312 222.089844 30.167969 222.902344 30.679688 C 223.769531 31.242188 224.09375 32.097656 224.09375 33.855469 C 224.09375 36.050781 223.558594 37.125 222.257812 37.617188 C 221.507812 37.898438 219.921875 37.992188 216.167969 37.992188 C 212.257812 37.992188 210.734375 37.824219 209.847656 37.261719 C 208.980469 36.707031 208.691406 35.976562 208.691406 34.230469 L 208.691406 33.625 Z M 207.867188 25.191406 L 207.867188 28.160156 L 197.71875 28.160156 L 197.71875 30 L 207.355469 30 L 207.355469 32.777344 L 197.71875 32.777344 L 197.71875 34.785156 L 207.949219 34.785156 L 207.949219 37.804688 L 193.945312 37.804688 L 193.945312 25.191406 Z M 179.710938 25.191406 L 179.710938 31.003906 C 179.753906 32.988281 179.753906 33.007812 179.847656 33.519531 C 180.054688 34.511719 180.785156 34.722656 184.050781 34.722656 C 186.699219 34.722656 187.492188 34.605469 187.898438 34.15625 C 188.199219 33.832031 188.292969 33.5 188.355469 32.308594 C 188.375 31.871094 188.386719 31.261719 188.386719 31.003906 L 188.386719 25.191406 L 192.222656 25.191406 L 192.222656 31.003906 C 192.160156 33.855469 192.152344 34.0625 192.035156 34.953125 C 191.828125 36.394531 190.867188 37.386719 189.429688 37.6875 C 188.292969 37.917969 187.03125 37.992188 184.113281 37.992188 C 179.292969 37.992188 177.792969 37.730469 176.84375 36.726562 C 176.21875 36.089844 176.007812 35.308594 175.914062 33.457031 C 175.90625 33.039062 175.90625 33.039062 175.882812 31.003906 L 175.882812 25.191406 Z M 174.425781 30.65625 L 174.425781 31.003906 C 174.425781 32.246094 174.351562 34.410156 174.289062 35.003906 C 174.140625 36.488281 173.328125 37.355469 171.816406 37.65625 C 170.535156 37.917969 169.21875 37.992188 165.800781 37.992188 C 161.484375 37.992188 160.136719 37.824219 159.085938 37.105469 C 157.96875 36.371094 157.761719 35.441406 157.761719 31.304688 C 157.761719 25.402344 158.3125 25.003906 166.46875 25.003906 C 171.140625 25.003906 172.878906 25.308594 173.703125 26.308594 C 174.238281 26.9375 174.394531 27.710938 174.402344 29.558594 L 170.578125 29.558594 C 170.554688 28.828125 170.523438 28.671875 170.273438 28.503906 C 169.898438 28.242188 169.011719 28.160156 166.144531 28.160156 C 161.617188 28.160156 161.597656 28.179688 161.597656 31.453125 C 161.597656 33.59375 161.710938 34.230469 162.121094 34.574219 C 162.441406 34.835938 162.785156 34.898438 163.859375 34.929688 L 166.101562 34.972656 C 170.578125 34.972656 170.691406 34.929688 170.691406 33.53125 L 170.691406 33.175781 L 165.652344 33.175781 L 165.652344 30.65625 Z M 156.25 25.191406 L 156.25 37.804688 L 152.234375 37.804688 L 152.234375 25.191406 Z M 135.246094 25.191406 L 144.507812 25.191406 C 148.84375 25.191406 148.84375 25.191406 149.65625 25.683594 C 150.628906 26.277344 150.910156 27.105469 150.910156 29.300781 C 150.910156 31.167969 150.722656 31.890625 150.035156 32.402344 C 149.679688 32.683594 149.324219 32.820312 148.5625 32.925781 C 150.511719 33.15625 150.847656 33.71875 150.773438 36.632812 L 150.773438 37.804688 L 147 37.804688 L 147 37.144531 C 147 35.726562 146.925781 35.277344 146.625 34.953125 C 146.363281 34.648438 146.070312 34.605469 144.484375 34.605469 L 139.074219 34.605469 L 139.074219 37.804688 L 135.246094 37.804688 Z M 144.476562 31.453125 C 146.394531 31.421875 146.394531 31.421875 146.664062 31.230469 C 146.96875 31.035156 147.070312 30.65625 147.070312 29.863281 C 147.070312 29.015625 146.925781 28.652344 146.53125 28.484375 C 146.269531 28.367188 146.207031 28.367188 144.476562 28.347656 L 139.074219 28.347656 L 139.074219 31.453125 Z M 117.132812 25.191406 L 126.214844 25.191406 C 129.417969 25.191406 129.855469 25.214844 130.929688 25.441406 C 132.171875 25.683594 133.003906 26.40625 133.378906 27.574219 C 133.660156 28.464844 133.746094 29.257812 133.746094 31.324219 C 133.746094 34.605469 133.453125 35.890625 132.535156 36.75 C 131.566406 37.617188 130.460938 37.804688 126.214844 37.804688 L 117.132812 37.804688 Z M 126.246094 34.597656 C 129.71875 34.597656 129.96875 34.398438 129.96875 31.546875 C 129.96875 30 129.835938 29.300781 129.457031 28.882812 C 129.0625 28.429688 128.550781 28.347656 126.214844 28.347656 L 120.90625 28.347656 L 120.90625 34.597656 Z M 114.378906 25.871094 C 115.339844 26.613281 115.621094 27.878906 115.621094 31.492188 C 115.621094 35.117188 115.339844 36.382812 114.378906 37.125 C 113.421875 37.867188 112.230469 37.992188 107.019531 37.992188 C 101.722656 37.992188 100.554688 37.867188 99.582031 37.125 C 98.601562 36.371094 98.34375 35.117188 98.34375 31.421875 C 98.34375 27.898438 98.625 26.613281 99.582031 25.871094 C 100.554688 25.140625 101.722656 25.003906 106.988281 25.003906 C 112.242188 25.003906 113.421875 25.140625 114.378906 25.871094 Z M 102.472656 29.070312 C 102.242188 29.507812 102.167969 30.230469 102.167969 31.828125 C 102.167969 33.40625 102.285156 33.90625 102.742188 34.273438 C 103.242188 34.667969 103.847656 34.722656 107.019531 34.722656 C 110.09375 34.722656 110.71875 34.648438 111.230469 34.273438 C 111.660156 33.925781 111.792969 33.382812 111.792969 31.847656 C 111.792969 29.976562 111.679688 29.257812 111.34375 28.839844 C 110.90625 28.335938 110.492188 28.273438 106.988281 28.273438 C 103.210938 28.273438 102.847656 28.335938 102.472656 29.070312 Z M 90.769531 31.453125 C 92.699219 31.421875 92.699219 31.421875 92.960938 31.222656 C 93.265625 31.035156 93.378906 30.65625 93.378906 29.863281 C 93.378906 29.015625 93.234375 28.652344 92.835938 28.484375 C 92.566406 28.367188 92.511719 28.367188 90.769531 28.347656 L 85.378906 28.347656 L 85.378906 31.453125 Z M 90.769531 31.453125 " fill-opacity="1" fill-rule="evenodd"/></g><path fill="#5a4b46" d="M 142.234375 43.5 L 144.683594 43.5 C 145.03125 45.121094 145.304688 46.519531 145.507812 47.6875 L 145.714844 46.519531 C 145.800781 46.066406 145.894531 45.625 145.996094 45.191406 L 146.371094 43.5 L 148.867188 43.5 L 149.84375 51.03125 L 147.925781 51.03125 L 147.40625 45.851562 L 146.207031 51.03125 L 144.902344 51.03125 L 143.652344 45.839844 L 143.152344 51.03125 L 141.316406 51.03125 Z M 159.011719 51.03125 L 156.988281 51.03125 L 156.664062 49.777344 L 154.621094 49.777344 L 154.277344 51.03125 L 152.304688 51.03125 L 154.570312 43.5 L 156.75 43.5 Z M 156.300781 48.421875 C 156.007812 47.300781 155.789062 46.234375 155.644531 45.222656 L 155.621094 45.222656 C 155.46875 46.261719 155.253906 47.328125 154.976562 48.421875 Z M 161.660156 43.5 L 163.914062 43.5 C 164.824219 43.5 165.542969 43.703125 166.070312 44.117188 C 166.605469 44.535156 166.875 45.097656 166.875 45.808594 C 166.875 46.171875 166.773438 46.523438 166.570312 46.863281 C 166.371094 47.203125 166.078125 47.460938 165.695312 47.636719 L 167.238281 51.03125 L 165.195312 51.03125 L 163.632812 47.605469 L 163.601562 47.605469 L 163.601562 51.03125 L 161.660156 51.03125 Z M 163.601562 44.953125 L 163.601562 46.75 C 164.453125 46.734375 164.882812 46.464844 164.882812 45.945312 C 164.882812 45.59375 164.78125 45.347656 164.582031 45.203125 C 164.386719 45.050781 164.058594 44.964844 163.601562 44.953125 Z M 174.488281 49.257812 L 174.488281 51.042969 C 174.078125 51.160156 173.707031 51.21875 173.382812 51.21875 C 172.261719 51.21875 171.355469 50.847656 170.660156 50.101562 C 169.964844 49.363281 169.617188 48.390625 169.617188 47.175781 C 169.617188 46.046875 169.96875 45.117188 170.671875 44.386719 C 171.371094 43.65625 172.257812 43.289062 173.328125 43.289062 C 173.753906 43.289062 174.140625 43.339844 174.488281 43.4375 L 174.488281 45.234375 C 174.117188 45.121094 173.765625 45.066406 173.433594 45.066406 C 172.933594 45.066406 172.515625 45.273438 172.183594 45.683594 C 171.847656 46.085938 171.679688 46.601562 171.679688 47.230469 C 171.679688 47.90625 171.847656 48.441406 172.183594 48.839844 C 172.523438 49.226562 172.972656 49.421875 173.527344 49.421875 C 173.796875 49.421875 174.117188 49.367188 174.488281 49.257812 Z M 177.40625 43.5 L 181.328125 43.5 L 181.328125 45.097656 L 179.347656 45.097656 L 179.347656 46.488281 L 181.066406 46.488281 L 181.066406 48.054688 L 179.347656 48.054688 L 179.347656 49.421875 L 181.335938 49.421875 L 181.335938 51.03125 L 177.40625 51.03125 Z M 184.539062 43.5 L 186.488281 43.5 L 188.949219 47.84375 L 188.886719 47.03125 L 188.886719 43.5 L 190.828125 43.5 L 190.828125 51.03125 L 188.835938 51.03125 L 186.425781 46.757812 L 186.480469 47.699219 L 186.480469 51.03125 L 184.539062 51.03125 Z M 200.296875 51.03125 L 198.28125 51.03125 L 197.960938 49.777344 L 195.914062 49.777344 L 195.570312 51.03125 L 193.601562 51.03125 L 195.863281 43.5 L 198.03125 43.5 Z M 197.585938 48.421875 C 197.300781 47.300781 197.082031 46.234375 196.9375 45.222656 L 196.90625 45.222656 C 196.753906 46.261719 196.539062 47.328125 196.261719 48.421875 Z M 202.945312 43.5 L 205.207031 43.5 C 206.117188 43.5 206.835938 43.707031 207.367188 44.125 C 207.894531 44.535156 208.160156 45.097656 208.160156 45.808594 C 208.160156 46.175781 208.058594 46.527344 207.855469 46.863281 C 207.65625 47.203125 207.363281 47.460938 206.980469 47.636719 L 208.535156 51.03125 L 206.488281 51.03125 L 204.914062 47.605469 L 204.882812 47.605469 L 204.882812 51.03125 L 202.945312 51.03125 Z M 204.882812 44.960938 L 204.882812 46.75 C 205.738281 46.734375 206.171875 46.46875 206.175781 45.953125 C 206.175781 45.597656 206.078125 45.347656 205.875 45.203125 C 205.679688 45.050781 205.351562 44.96875 204.882812 44.960938 Z M 211.359375 43.5 L 213.300781 43.5 L 213.300781 51.03125 L 211.359375 51.03125 Z M 222.832031 51.03125 L 220.816406 51.03125 L 220.496094 49.777344 L 218.449219 49.777344 L 218.105469 51.03125 L 216.136719 51.03125 L 218.398438 43.5 L 220.566406 43.5 Z M 220.121094 48.421875 C 219.835938 47.300781 219.617188 46.234375 219.472656 45.222656 L 219.441406 45.222656 C 219.289062 46.261719 219.078125 47.328125 218.804688 48.421875 Z M 220.121094 48.421875 " fill-opacity="1" fill-rule="evenodd"/></svg>